# xmcd CD database file
#
# Track frame offsets:
#	150
#	18522
#	34136
#	52495
#
# Disc length: 907 seconds
#
# Revision: 1
# Processed by: cddbd v1.5.2PL0 Copyright (c) Steve Scherf et al.
# Submitted via: CDex 1.70beta2
#
DISCID=34038904
DTITLE=TAKUI - RE-SET
DYEAR=2003
DGENRE=JPop
TTITLE0=RE-SET
TTITLE1=LAMBRETTA
TTITLE2=RE-SET (VOCAL OFF VERSION)
TTITLE3=LAMBRETTA (VOCAL OFF VERSION)
EXTD=YEAR: 2003
EXTT0=
EXTT1=
EXTT2=
EXTT3=
PLAYORDER=
